<svg aria-hidden="true" style="width:0;height:0;position:absolute;overflow:hidden" xmlns="http://www.w3.org/2000/svg"><defs><symbol id="pen" viewBox="0 0 45 32"><path fill="#e62229" style="fill:var(--color1,#e62229)" d="M38.736 2.902c-.734-.736-2.083-.745-2.803.014-.767.763-1.535 1.524-2.301 2.288 1.808 1.811 3.619 3.619 5.428 5.429.77-.764 1.537-1.528 2.307-2.291.767-.726.746-2.089-.008-2.816-.874-.874-1.747-1.75-2.623-2.623zM23.663 25.705a6428.665 6428.665 0 0 0-5.225-5.221c-.612 1.857-1.219 3.715-1.831 5.572-.057.183-.136.368-.123.564.028.444.522.8.953.651 2.076-.522 4.152-1.04 6.226-1.567zm13.694-13.383c-1.808-1.81-3.619-3.619-5.427-5.428-3.961 3.935-7.922 7.868-11.882 11.804 1.808 1.811 3.617 3.619 5.425 5.428 3.964-3.931 7.926-7.865 11.883-11.804z"/><path fill="#e62229" style="fill:var(--color1,#e62229);stroke:var(--color1,#e62229)" stroke="#e62229" stroke-width=".61" d="M30.544 30.172H5.989c-.579 0-1.105-.236-1.486-.617s-.617-.907-.617-1.486V3.514c0-.579.236-1.105.617-1.486s.907-.617 1.486-.617h24.555c.579 0 1.105.236 1.486.617s.617.907.617 1.486v.276l-1.219 1.133v-1.41a.885.885 0 0 0-.884-.884H5.989a.885.885 0 0 0-.884.884v24.555a.885.885 0 0 0 .884.884h24.555a.885.885 0 0 0 .884-.884v-7.049l1.219-1.181v8.229c0 .579-.236 1.105-.617 1.486s-.907.617-1.486.617z"/></symbol><symbol id="clock" viewBox="0 0 45 32"><path d="M16 4C9.383 4 4 9.383 4 16s5.383 12 12 12 12-5.383 12-12S22.617 4 16 4Zm0 2c5.535 0 10 4.465 10 10s-4.465 10-10 10S6 21.535 6 16 10.465 6 16 6Zm-1 2v9h7v-2h-5V8Z"/></symbol><symbol id="phone" viewBox="0 0 32 32"><path d="m24.882 19.773-3.268-.373a2.561 2.561 0 0 0-2.11.733L17.137 22.5a19.357 19.357 0 0 1-8.478-8.478l2.38-2.38a2.561 2.561 0 0 0 .733-2.11l-.373-3.242a2.575 2.575 0 0 0-2.56-2.277H6.613c-1.454 0-2.663 1.209-2.573 2.663.682 10.987 9.469 19.761 20.443 20.443 1.454.09 2.663-1.119 2.663-2.573V22.32a2.549 2.549 0 0 0-2.264-2.547z"/></symbol><symbol id="letter" viewBox="0 0 43 32"><path d="M38.667 0H4C1.794 0 0 1.794 0 4v24c0 2.206 1.794 4 4 4h34.667c2.206 0 4-1.794 4-4V4c0-2.206-1.794-4-4-4zm0 2.667c.181 0 .353.038.511.103L21.334 18.236 3.49 2.77a1.32 1.32 0 0 1 .511-.103h34.667zm0 26.666H4A1.334 1.334 0 0 1 2.667 28V5.587L20.46 21.008a1.335 1.335 0 0 0 1.748 0L40.001 5.587V28c0 .736-.598 1.333-1.333 1.333z"/></symbol></defs></svg>