<svg aria-hidden="true" style="width:0;height:0;position:absolute;overflow:hidden" xmlns="http://www.w3.org/2000/svg"><defs><symbol id="pen" viewBox="0 0 45 32"><path fill="#e62229" style="fill:var(--color1,#e62229)" d="M38.736 2.902c-.734-.736-2.083-.745-2.803.014-.767.763-1.535 1.524-2.301 2.288 1.808 1.811 3.619 3.619 5.428 5.429.77-.764 1.537-1.528 2.307-2.291.767-.726.746-2.089-.008-2.816-.874-.874-1.747-1.75-2.623-2.623zM23.663 25.705a6428.665 6428.665 0 0 0-5.225-5.221c-.612 1.857-1.219 3.715-1.831 5.572-.057.183-.136.368-.123.564.028.444.522.8.953.651 2.076-.522 4.152-1.04 6.226-1.567zm13.694-13.383c-1.808-1.81-3.619-3.619-5.427-5.428-3.961 3.935-7.922 7.868-11.882 11.804 1.808 1.811 3.617 3.619 5.425 5.428 3.964-3.931 7.926-7.865 11.883-11.804z"/><path fill="#e62229" style="fill:var(--color1,#e62229);stroke:var(--color1,#e62229)" stroke="#e62229" stroke-width=".61" d="M30.544 30.172H5.989c-.579 0-1.105-.236-1.486-.617s-.617-.907-.617-1.486V3.514c0-.579.236-1.105.617-1.486s.907-.617 1.486-.617h24.555c.579 0 1.105.236 1.486.617s.617.907.617 1.486v.276l-1.219 1.133v-1.41a.885.885 0 0 0-.884-.884H5.989a.885.885 0 0 0-.884.884v24.555a.885.885 0 0 0 .884.884h24.555a.885.885 0 0 0 .884-.884v-7.049l1.219-1.181v8.229c0 .579-.236 1.105-.617 1.486s-.907.617-1.486.617z"/></symbol><symbol id="clock" viewBox="0 0 45 32"><path d="M16 4C9.383 4 4 9.383 4 16s5.383 12 12 12 12-5.383 12-12S22.617 4 16 4Zm0 2c5.535 0 10 4.465 10 10s-4.465 10-10 10S6 21.535 6 16 10.465 6 16 6Zm-1 2v9h7v-2h-5V8Z"/></symbol><symbol id="phone" viewBox="0 0 32 32"><path d="m24.882 19.773-3.268-.373a2.561 2.561 0 0 0-2.11.733L17.137 22.5a19.357 19.357 0 0 1-8.478-8.478l2.38-2.38a2.561 2.561 0 0 0 .733-2.11l-.373-3.242a2.575 2.575 0 0 0-2.56-2.277H6.613c-1.454 0-2.663 1.209-2.573 2.663.682 10.987 9.469 19.761 20.443 20.443 1.454.09 2.663-1.119 2.663-2.573V22.32a2.549 2.549 0 0 0-2.264-2.547z"/></symbol><symbol id="letter" viewBox="0 0 43 32"><path d="M38.667 0H4C1.794 0 0 1.794 0 4v24c0 2.206 1.794 4 4 4h34.667c2.206 0 4-1.794 4-4V4c0-2.206-1.794-4-4-4zm0 2.667c.181 0 .353.038.511.103L21.334 18.236 3.49 2.77a1.32 1.32 0 0 1 .511-.103h34.667zm0 26.666H4A1.334 1.334 0 0 1 2.667 28V5.587L20.46 21.008a1.335 1.335 0 0 0 1.748 0L40.001 5.587V28c0 .736-.598 1.333-1.333 1.333z"/></symbol><symbol id="clock-big" viewBox="0 0 32 32"><path d="M16 1.333C7.9 1.333 1.333 7.9 1.333 16S7.899 30.667 16 30.667 30.667 24.101 30.667 16c0-8.1-6.566-14.667-14.667-14.667zM16 28C9.373 28 4 22.628 4 16S9.373 4 16 4s12 5.373 12 12c0 6.628-5.373 12-12 12zm4.943-8.943a1.333 1.333 0 1 1-1.886 1.886l-4-4a1.334 1.334 0 0 1-.391-.943V8a1.333 1.333 0 0 1 2.666 0v7.448l3.609 3.609z"/></symbol><symbol id="clock-little" viewBox="0 0 32 32"><path d="M16 0C7.164 0 0 7.164 0 16s7.164 16 16 16 16-7.164 16-16S24.836 0 16 0zm1 29.949V28h-2v1.949C8.08 29.457 2.543 23.92 2.051 17H4v-2H2.051C2.543 8.08 8.08 2.543 15 2.051V4h2V2.051C23.92 2.543 29.457 8.08 29.949 15H28v2h1.949C29.457 23.92 23.92 29.457 17 29.949zm6.361-18.199a.504.504 0 0 1-.183.684l-5.282 3.049c.046.17.104.334.104.518a2 2 0 0 1-4 0l-5.428-3.133a1 1 0 0 1 1-1.734l5.459 3.152c.291-.164.609-.285.969-.285.559 0 1.061.23 1.425.602l5.253-3.035a.502.502 0 0 1 .684.183z"/></symbol><symbol id="point" viewBox="0 0 32 32"><path d="M16 32h-.008a1.72 1.72 0 0 1-1.215-.5l-8.22-8.22a13.719 13.719 0 0 1-4.058-9.758v-.104.005-.042c0-3.711 1.518-7.068 3.966-9.484l.001-.001C8.923 1.494 12.288.012 15.998.012s7.076 1.482 9.535 3.886l-.003-.002a13.282 13.282 0 0 1 3.968 9.485v.044-.002.099a13.72 13.72 0 0 1-4.057 9.758l-.001.001-8.22 8.205a1.72 1.72 0 0 1-1.222.515zm0-30.5h-.028a12.01 12.01 0 0 0-8.454 3.464l.002-.001A11.798 11.798 0 0 0 4 13.385v.043-.002.09c0 3.401 1.383 6.479 3.617 8.702l8.218 8.205a.226.226 0 0 0 .328 0l8.22-8.205a12.237 12.237 0 0 0 3.618-8.702v-.095.005-.041c0-3.295-1.346-6.275-3.519-8.421l-.001-.001A12.005 12.005 0 0 0 16.029 1.5H16h.002z"/><path d="M16 20.352a6.813 6.813 0 1 1 4.826-2 6.786 6.786 0 0 1-4.82 2H16zM16 8.23a5.316 5.316 0 1 0 3.765 1.555 5.295 5.295 0 0 0-3.756-1.555h-.01H16z"/></symbol><symbol id="box" viewBox="0 0 32 32"><path d="M31.383 7.374 16.196 1.687a.667.667 0 0 0-.466 0L.437 7.413c-.269.078-.593.502-.353.936v16.057c0 .284.18.536.448.629l15.049 5.194c.089.051.158.096.316.117.221.029.361-.033.362-.033l15.293-5.278a.666.666 0 0 0 .448-.629V8.036c.006-.319-.368-.574-.617-.662zm-2.023.662-13.357 5.002-4.009-1.501 12.722-5.24 4.644 1.739zm-6.473-2.423L9.518 11.119l-.329 3.198L6.7 13.314v-2.968l13.866-5.603 2.321.869zM15.963 3.02l2.761 1.034L5.873 9.246 2.605 8.022 15.963 3.02zM1.414 9.025l3.957 1.482v3.705l4.961 1.999.381-3.704 4.665 1.747v14.499L1.415 23.934V9.026zM30.67 23.933l-13.963 4.819V14.224L30.67 8.996v14.937z"/></symbol><symbol id="money" viewBox="0 0 51 32"><path d="M50.402 8.579h-3.217V5.362c0-.592-.48-1.072-1.072-1.072h-3.217V1.073c0-.592-.48-1.072-1.072-1.072H1.073C.481.001.001.481.001 1.073v21.255c0 .592.48 1.072 1.072 1.072H4.29v3.217c0 .592.48 1.072 1.072 1.072h3.217v3.217c0 .592.48 1.072 1.072 1.072h40.751c.592 0 1.072-.48 1.072-1.072V9.651c0-.592-.48-1.072-1.072-1.072zM33.887 21.255H9.008c-.501-3.571-3.293-6.362-6.821-6.858l-.042-.005V9.009c3.571-.501 6.362-3.293 6.858-6.821l.005-.042h24.879c.501 3.571 3.293 6.362 6.821 6.858l.042.005v5.383c-3.571.501-6.362 3.293-6.858 6.821l-.005.042zm6.864-4.719v4.718h-4.74a5.937 5.937 0 0 1 4.703-4.713l.037-.006zm0-14.391v4.74a5.936 5.936 0 0 1-4.734-4.703l-.006-.037zm-38.606 0h4.74a5.936 5.936 0 0 1-4.703 4.734l-.037.006zm0 14.391a5.935 5.935 0 0 1 4.734 4.681l.006.037h-4.74zm4.289 6.885h35.389c.592 0 1.072-.48 1.072-1.072V6.435h2.145v19.11H6.434zm42.896 6.434H10.724V27.71h35.389c.592 0 1.072-.48 1.072-1.072V10.724h2.145z"/><path d="M21.448 4.418c-4.016 0-7.271 3.255-7.271 7.271s3.255 7.271 7.271 7.271a7.27 7.27 0 0 0 7.271-7.271 7.292 7.292 0 0 0-7.27-7.271h-.001zm0 12.397a5.126 5.126 0 1 1 5.126-5.126v.021a5.126 5.126 0 0 1-5.126 5.126z"/></symbol></defs></svg>