<svg aria-hidden="true" style="position: absolute; width: 0; height: 0; overflow: hidden;" version="1.1" xmlns="http://www.w3.org/2000/svg" xmlns:xlink="http://www.w3.org/1999/xlink">
<defs>
<symbol id="pen" viewBox="0 0 45 32">
<path fill="#e62229" style="fill: var(--color1, #e62229)" d="M38.736 2.902c-0.734-0.736-2.083-0.745-2.803 0.014-0.767 0.763-1.535 1.524-2.301 2.288 1.808 1.811 3.619 3.619 5.428 5.429 0.77-0.764 1.537-1.528 2.307-2.291 0.767-0.726 0.746-2.089-0.008-2.816-0.874-0.874-1.747-1.75-2.623-2.623zM23.663 25.705c-1.741-1.742-3.483-3.482-5.225-5.221-0.612 1.857-1.219 3.715-1.831 5.572-0.057 0.183-0.136 0.368-0.123 0.564 0.028 0.444 0.522 0.8 0.953 0.651 2.076-0.522 4.152-1.040 6.226-1.567zM37.357 12.322c-1.808-1.81-3.619-3.619-5.427-5.428-3.961 3.935-7.922 7.868-11.882 11.804 1.808 1.811 3.617 3.619 5.425 5.428 3.964-3.931 7.926-7.865 11.883-11.804z"></path>
<path fill="#e62229" style="fill: var(--color1, #e62229); stroke: var(--color1, #e62229)" stroke="#e62229" stroke-linejoin="miter" stroke-linecap="butt" stroke-miterlimit="4" stroke-width="0.6095" d="M30.544 30.172h-24.555c-0.579 0-1.105-0.236-1.486-0.617s-0.617-0.907-0.617-1.486v-24.555c0-0.579 0.236-1.105 0.617-1.486s0.907-0.617 1.486-0.617h24.555c0.579 0 1.105 0.236 1.486 0.617s0.617 0.907 0.617 1.486v0.276l-1.219 1.133v-1.41c0-0.242-0.1-0.463-0.26-0.624s-0.381-0.26-0.624-0.26h-24.555c-0.242 0-0.463 0.1-0.624 0.26s-0.26 0.381-0.26 0.624v24.555c0 0.242 0.1 0.463 0.26 0.624s0.381 0.26 0.624 0.26h24.555c0.242 0 0.463-0.1 0.624-0.26s0.26-0.381 0.26-0.624v-7.049l1.219-1.181v8.229c0 0.579-0.236 1.105-0.617 1.486s-0.907 0.617-1.486 0.617z"></path>
</symbol>
<symbol id="clock" viewBox="0 0 45 32">
<path d="M 16 4 C 9.382813 4 4 9.382813 4 16 C 4 22.617188 9.382813 28 16 28 C 22.617188 28 28 22.617188 28 16 C 28 9.382813 22.617188 4 16 4 Z M 16 6 C 21.535156 6 26 10.464844 26 16 C 26 21.535156 21.535156 26 16 26 C 10.464844 26 6 21.535156 6 16 C 6 10.464844 10.464844 6 16 6 Z M 15 8 L 15 17 L 22 17 L 22 15 L 17 15 L 17 8 Z"/>
</symbol>
<symbol id="phone" viewBox="0 0 32 32">
<path d="M24.882 19.773l-3.268-0.373c-0.785-0.090-1.557 0.18-2.11 0.733l-2.367 2.367c-3.641-1.853-6.626-4.825-8.478-8.478l2.38-2.38c0.553-0.553 0.823-1.325 0.733-2.11l-0.373-3.242c-0.154-1.299-1.248-2.277-2.56-2.277h-2.226c-1.454 0-2.663 1.209-2.573 2.663 0.682 10.987 9.469 19.761 20.443 20.443 1.454 0.090 2.663-1.119 2.663-2.573v-2.226c0.013-1.3-0.965-2.393-2.264-2.547z"></path>
</symbol>
<symbol id="letter" viewBox="0 0 43 32"><path d="M38.667 0H4C1.794 0 0 1.794 0 4v24c0 2.206 1.794 4 4 4h34.667c2.206 0 4-1.794 4-4V4c0-2.206-1.794-4-4-4zm0 2.667c.181 0 .353.038.511.103L21.334 18.236 3.49 2.77a1.32 1.32 0 0 1 .511-.103h34.667zm0 26.666H4A1.334 1.334 0 0 1 2.667 28V5.587L20.46 21.008a1.335 1.335 0 0 0 1.748 0L40.001 5.587V28c0 .736-.598 1.333-1.333 1.333z"/></symbol>
</defs>
</svg>
