<svg aria-hidden="true" style="position: absolute; width: 0; height: 0; overflow: hidden;" version="1.1" xmlns="http://www.w3.org/2000/svg" xmlns:xlink="http://www.w3.org/1999/xlink">
<defs>
<symbol id="pen" viewBox="0 0 45 32">
<path fill="#e62229" style="fill: var(--color1, #e62229)" d="M38.736 2.902c-0.734-0.736-2.083-0.745-2.803 0.014-0.767 0.763-1.535 1.524-2.301 2.288 1.808 1.811 3.619 3.619 5.428 5.429 0.77-0.764 1.537-1.528 2.307-2.291 0.767-0.726 0.746-2.089-0.008-2.816-0.874-0.874-1.747-1.75-2.623-2.623zM23.663 25.705c-1.741-1.742-3.483-3.482-5.225-5.221-0.612 1.857-1.219 3.715-1.831 5.572-0.057 0.183-0.136 0.368-0.123 0.564 0.028 0.444 0.522 0.8 0.953 0.651 2.076-0.522 4.152-1.040 6.226-1.567zM37.357 12.322c-1.808-1.81-3.619-3.619-5.427-5.428-3.961 3.935-7.922 7.868-11.882 11.804 1.808 1.811 3.617 3.619 5.425 5.428 3.964-3.931 7.926-7.865 11.883-11.804z"></path>
<path fill="#e62229" style="fill: var(--color1, #e62229); stroke: var(--color1, #e62229)" stroke="#e62229" stroke-linejoin="miter" stroke-linecap="butt" stroke-miterlimit="4" stroke-width="0.6095" d="M30.544 30.172h-24.555c-0.579 0-1.105-0.236-1.486-0.617s-0.617-0.907-0.617-1.486v-24.555c0-0.579 0.236-1.105 0.617-1.486s0.907-0.617 1.486-0.617h24.555c0.579 0 1.105 0.236 1.486 0.617s0.617 0.907 0.617 1.486v0.276l-1.219 1.133v-1.41c0-0.242-0.1-0.463-0.26-0.624s-0.381-0.26-0.624-0.26h-24.555c-0.242 0-0.463 0.1-0.624 0.26s-0.26 0.381-0.26 0.624v24.555c0 0.242 0.1 0.463 0.26 0.624s0.381 0.26 0.624 0.26h24.555c0.242 0 0.463-0.1 0.624-0.26s0.26-0.381 0.26-0.624v-7.049l1.219-1.181v8.229c0 0.579-0.236 1.105-0.617 1.486s-0.907 0.617-1.486 0.617z"></path>
</symbol>
<symbol id="clock" viewBox="0 0 45 32">
<path d="M 16 4 C 9.382813 4 4 9.382813 4 16 C 4 22.617188 9.382813 28 16 28 C 22.617188 28 28 22.617188 28 16 C 28 9.382813 22.617188 4 16 4 Z M 16 6 C 21.535156 6 26 10.464844 26 16 C 26 21.535156 21.535156 26 16 26 C 10.464844 26 6 21.535156 6 16 C 6 10.464844 10.464844 6 16 6 Z M 15 8 L 15 17 L 22 17 L 22 15 L 17 15 L 17 8 Z"/>
</symbol>
<symbol id="phone" viewBox="0 0 32 32">
<path d="M24.882 19.773l-3.268-0.373c-0.785-0.090-1.557 0.18-2.11 0.733l-2.367 2.367c-3.641-1.853-6.626-4.825-8.478-8.478l2.38-2.38c0.553-0.553 0.823-1.325 0.733-2.11l-0.373-3.242c-0.154-1.299-1.248-2.277-2.56-2.277h-2.226c-1.454 0-2.663 1.209-2.573 2.663 0.682 10.987 9.469 19.761 20.443 20.443 1.454 0.090 2.663-1.119 2.663-2.573v-2.226c0.013-1.3-0.965-2.393-2.264-2.547z"></path>
</symbol>
<symbol id="letter" viewBox="0 0 43 32"><path d="M38.667 0H4C1.794 0 0 1.794 0 4v24c0 2.206 1.794 4 4 4h34.667c2.206 0 4-1.794 4-4V4c0-2.206-1.794-4-4-4zm0 2.667c.181 0 .353.038.511.103L21.334 18.236 3.49 2.77a1.32 1.32 0 0 1 .511-.103h34.667zm0 26.666H4A1.334 1.334 0 0 1 2.667 28V5.587L20.46 21.008a1.335 1.335 0 0 0 1.748 0L40.001 5.587V28c0 .736-.598 1.333-1.333 1.333z"/></symbol>
<symbol id="clock-big" viewBox="0 0 32 32">
<path d="M16 1.333c-8.1 0-14.667 6.567-14.667 14.667s6.566 14.667 14.667 14.667 14.667-6.566 14.667-14.667c0-8.1-6.566-14.667-14.667-14.667zM16 28c-6.627 0-12-5.372-12-12s5.373-12 12-12 12 5.373 12 12c0 6.628-5.373 12-12 12zM20.943 19.057c0.521 0.521 0.521 1.365 0 1.886-0.26 0.26-0.602 0.39-0.943 0.39s-0.682-0.13-0.943-0.39l-4-4c-0.25-0.25-0.391-0.589-0.391-0.943v-8c0-0.736 0.597-1.333 1.333-1.333s1.333 0.597 1.333 1.333v7.448l3.609 3.609z"></path>
</symbol>
<symbol id="clock-little" viewBox="0 0 32 32">
<path d="M16 0c-8.836 0-16 7.164-16 16s7.164 16 16 16 16-7.164 16-16c0-8.836-7.164-16-16-16zM17 29.949v-1.949h-2v1.949c-6.92-0.492-12.457-6.029-12.949-12.949h1.949v-2h-1.949c0.492-6.92 6.029-12.457 12.949-12.949v1.949h2v-1.949c6.92 0.492 12.457 6.029 12.949 12.949h-1.949v2h1.949c-0.492 6.92-6.029 12.457-12.949 12.949zM23.361 11.75c0.137 0.238 0.055 0.545-0.183 0.684l-5.282 3.049c0.046 0.17 0.104 0.334 0.104 0.518 0 1.105-0.896 2-2 2s-2-0.894-2-2l-5.428-3.133c-0.479-0.277-0.643-0.889-0.366-1.367 0.275-0.48 0.888-0.644 1.366-0.367l5.459 3.152c0.291-0.164 0.609-0.285 0.969-0.285 0.559 0 1.061 0.23 1.425 0.602l5.253-3.035c0.235-0.139 0.541-0.057 0.684 0.183z"></path>
</symbol>
<symbol id="point" viewBox="0 0 32 32">
<path d="M16 32c-0.002 0-0.005 0-0.008 0-0.474 0-0.903-0.191-1.215-0.5l-8.22-8.22c-2.507-2.493-4.058-5.945-4.058-9.758 0-0.035 0-0.070 0-0.104l-0 0.005c-0-0.012-0-0.027-0-0.042 0-3.711 1.518-7.068 3.966-9.484l0.001-0.001c2.457-2.402 5.822-3.884 9.532-3.884s7.076 1.482 9.535 3.886l-0.003-0.002c2.45 2.417 3.968 5.774 3.968 9.485 0 0.015-0 0.030-0 0.044v-0.002c0 0.029 0 0.064 0 0.099 0 3.814-1.551 7.265-4.057 9.758l-0.001 0.001-8.22 8.205c-0.311 0.316-0.744 0.513-1.222 0.515h-0zM16 1.5c-0.008-0-0.018-0-0.028-0-3.294 0-6.279 1.322-8.454 3.464l0.002-0.001c-2.174 2.147-3.52 5.127-3.52 8.422 0 0.014 0 0.029 0 0.043v-0.002c-0 0.027-0 0.059-0 0.090 0 3.401 1.383 6.479 3.617 8.702l0 0 8.218 8.205c0.041 0.043 0.099 0.070 0.164 0.070s0.122-0.027 0.164-0.070l0-0 8.22-8.205c2.235-2.224 3.618-5.301 3.618-8.702 0-0.032-0-0.063-0-0.095l0 0.005c0-0.012 0-0.026 0-0.041 0-3.295-1.346-6.275-3.519-8.421l-0.001-0.001c-2.173-2.141-5.158-3.463-8.452-3.463-0.010 0-0.020 0-0.029 0h0.002z"></path>
<path d="M16 20.352c-3.761-0.002-6.809-3.051-6.809-6.813 0-3.762 3.050-6.813 6.813-6.813s6.813 3.050 6.813 6.813c0 1.879-0.761 3.58-1.991 4.813l0-0c-1.233 1.236-2.937 2-4.82 2-0.002 0-0.004 0-0.006 0h0zM16 8.23c-2.932 0.005-5.307 2.383-5.307 5.315 0 2.935 2.38 5.315 5.315 5.315s5.315-2.38 5.315-5.315c0-1.469-0.596-2.798-1.558-3.76l-0-0c-0.961-0.961-2.289-1.555-3.756-1.555-0.003 0-0.007 0-0.010 0h0.001z"></path>
</symbol>
<symbol id="box" viewBox="0 0 32 32">
<path d="M31.383 7.374l-15.187-5.687c-0.15-0.056-0.316-0.056-0.466 0l-15.293 5.726c-0.269 0.078-0.593 0.502-0.353 0.936v16.057c0 0.284 0.18 0.536 0.448 0.629l15.049 5.194c0.089 0.051 0.158 0.096 0.316 0.117 0.221 0.029 0.361-0.033 0.362-0.033l15.293-5.278c0.268-0.093 0.448-0.345 0.448-0.629v-16.37c0.006-0.319-0.368-0.574-0.617-0.662zM29.36 8.036l-13.357 5.002-4.009-1.501 12.722-5.24 4.644 1.739zM22.887 5.613l-13.369 5.506-0.329 3.198-2.489-1.003v-2.968l13.866-5.603 2.321 0.869zM15.963 3.020l2.761 1.034-12.851 5.192-3.268-1.224 13.358-5.002zM1.414 9.025l3.957 1.482v3.705l4.961 1.999 0.381-3.704 4.665 1.747v14.499l-13.963-4.819v-14.908zM30.67 23.933l-13.963 4.819v-14.528l13.963-5.228v14.937z"></path>
</symbol>
<symbol id="money" viewBox="0 0 51 32">
<path d="M50.402 8.579h-3.217v-3.217c0-0.592-0.48-1.072-1.072-1.072v0h-3.217v-3.217c0-0.592-0.48-1.072-1.072-1.072v0h-40.751c-0.592 0-1.072 0.48-1.072 1.072v0 21.255c0 0.592 0.48 1.072 1.072 1.072v0h3.217v3.217c0 0.592 0.48 1.072 1.072 1.072v0h3.217v3.217c0 0.592 0.48 1.072 1.072 1.072v0h40.751c0.592 0 1.072-0.48 1.072-1.072v0-21.255c0-0.592-0.48-1.072-1.072-1.072v0zM33.887 21.255h-24.879c-0.501-3.571-3.293-6.362-6.821-6.858l-0.042-0.005v-5.383c3.571-0.501 6.362-3.293 6.858-6.821l0.005-0.042h24.879c0.501 3.571 3.293 6.362 6.821 6.858l0.042 0.005v5.383c-3.571 0.501-6.362 3.293-6.858 6.821l-0.005 0.042zM40.751 16.536v4.718h-4.74c0.467-2.401 2.335-4.262 4.703-4.713l0.037-0.006zM40.751 2.145v4.74c-2.41-0.459-4.281-2.33-4.734-4.703l-0.006-0.037zM2.145 2.145h4.74c-0.459 2.41-2.33 4.281-4.703 4.734l-0.037 0.006zM2.145 16.536c2.405 0.456 4.273 2.317 4.734 4.681l0.006 0.037h-4.74zM6.434 23.421h35.389c0.592 0 1.072-0.48 1.072-1.072v0-15.914h2.145v19.11h-38.606zM49.33 29.855h-38.606v-2.145h35.389c0.592 0 1.072-0.48 1.072-1.072v0-15.914h2.145z"></path>
<path d="M21.448 4.418c-4.016 0-7.271 3.255-7.271 7.271s3.255 7.271 7.271 7.271c4.016 0 7.271-3.255 7.271-7.271v0c-0.012-4.011-3.26-7.259-7.27-7.271h-0.001zM21.448 16.815c-2.831 0-5.126-2.295-5.126-5.126s2.295-5.126 5.126-5.126c2.831 0 5.126 2.295 5.126 5.126v0c0 0.006 0 0.014 0 0.021 0 2.831-2.295 5.126-5.126 5.126-0 0-0 0-0 0v0z"></path>
</symbol>
<symbol id="burger" viewBox="0 0 32 32"><path d="M6.4 11.733v-2.133h19.2v2.133h-19.2zM6.4 17.067h19.2v-2.133h-19.2v2.133zM6.4 22.4h19.2v-2.133h-19.2v2.133z"></path>
</symbol>
<symbol id="close-burger" viewBox="0 0 32 32"><path d="M23.733 10.304l-1.504-1.504-5.963 5.963-5.963-5.963-1.504 1.504 5.963 5.963-5.963 5.963 1.504 1.504 5.963-5.963 5.963 5.963 1.504-1.504-5.963-5.963 5.963-5.963z"></path>
</symbol>
</defs>
</svg>
